<?xml version="1.0" encoding="UTF-8"?><svg id="_レイヤー_2" xmlns="http://www.w3.org/2000/svg" viewBox="0 0 507.81 124.72"><defs><style>.cls-1{fill:#414040;}.cls-1,.cls-2{stroke-width:0px;}.cls-2{fill:#eaeaea;}</style></defs><g id="_レイヤー_4"><path class="cls-1" d="m0,0v124.72h56.25c-17.48-10.12-29.25-29-29.25-50.65,0-32.31,26.19-58.5,58.5-58.5s58.5,26.19,58.5,58.5c0,21.65-11.77,40.54-29.25,50.65h334.56c32.31,0,58.5-26.19,58.5-58.5V0H0Z"/><path class="cls-2" d="m162,81.98v-38.75h6.92l28.01,30.28-.78.22c-.18-1.18-.34-2.38-.47-3.6-.13-1.22-.23-2.45-.3-3.71-.08-1.25-.14-2.53-.19-3.82-.05-1.29-.09-2.58-.11-3.87-.02-1.29-.03-2.58-.03-3.88v-11.62h7.14v38.75h-7.03l-28.12-29.83,1-.39c.11,1.03.21,2.06.3,3.07.09,1.01.19,2.03.3,3.04.11,1.02.2,2.02.28,3.02.07,1,.13,2.01.17,3.04.04,1.03.05,2.05.05,3.04v15h-7.14Z"/><path class="cls-2" d="m238.99,82.53c-3.25,0-6.25-.51-8.99-1.52-2.75-1.01-5.14-2.43-7.17-4.23-2.03-1.81-3.6-3.92-4.71-6.34-1.11-2.42-1.66-5.04-1.66-7.89s.55-5.47,1.66-7.89,2.67-4.53,4.71-6.34c2.03-1.81,4.42-3.22,7.17-4.23,2.75-1.01,5.75-1.52,8.99-1.52s6.3.51,9.05,1.52,5.13,2.43,7.14,4.23c2.01,1.81,3.58,3.92,4.71,6.34,1.12,2.42,1.69,5.05,1.69,7.89s-.56,5.47-1.69,7.89c-1.13,2.42-2.69,4.53-4.71,6.34-2.01,1.81-4.39,3.22-7.14,4.23s-5.77,1.52-9.05,1.52Zm0-6.86c2.25,0,4.3-.33,6.14-1,1.84-.66,3.45-1.6,4.82-2.79,1.36-1.2,2.43-2.59,3.18-4.18.76-1.59,1.13-3.3,1.13-5.15s-.38-3.56-1.13-5.15c-.76-1.59-1.82-2.98-3.18-4.18-1.37-1.2-2.97-2.13-4.82-2.79-1.85-.67-3.89-1-6.14-1s-4.25.33-6.12,1c-1.86.66-3.47,1.59-4.82,2.77-1.35,1.18-2.39,2.56-3.13,4.15-.74,1.59-1.11,3.32-1.11,5.2s.37,3.57,1.11,5.18c.74,1.61,1.78,3,3.13,4.18,1.35,1.18,2.95,2.1,4.82,2.77s3.9,1,6.12,1Z"/><path class="cls-2" d="m272.26,81.98v-5.04l26.24-28.89,2.71,1.99h-27.51v-6.81h34.1v4.98l-26.24,28.95-2.66-1.88h29.5v6.7h-36.14Z"/><path class="cls-2" d="m341.56,82.53c-3.25,0-6.25-.51-8.99-1.52-2.75-1.01-5.14-2.43-7.17-4.23-2.03-1.81-3.6-3.92-4.71-6.34-1.11-2.42-1.66-5.04-1.66-7.89s.55-5.47,1.66-7.89,2.67-4.53,4.71-6.34c2.03-1.81,4.42-3.22,7.17-4.23,2.75-1.01,5.75-1.52,8.99-1.52s6.3.51,9.05,1.52,5.13,2.43,7.14,4.23c2.01,1.81,3.58,3.92,4.71,6.34,1.12,2.42,1.69,5.05,1.69,7.89s-.56,5.47-1.69,7.89c-1.13,2.42-2.69,4.53-4.71,6.34-2.01,1.81-4.39,3.22-7.14,4.23s-5.77,1.52-9.05,1.52Zm0-6.86c2.25,0,4.3-.33,6.14-1,1.84-.66,3.45-1.6,4.82-2.79,1.36-1.2,2.43-2.59,3.18-4.18.76-1.59,1.13-3.3,1.13-5.15s-.38-3.56-1.13-5.15c-.76-1.59-1.82-2.98-3.18-4.18-1.37-1.2-2.97-2.13-4.82-2.79-1.85-.67-3.89-1-6.14-1s-4.25.33-6.12,1c-1.86.66-3.47,1.59-4.82,2.77-1.35,1.18-2.39,2.56-3.13,4.15-.74,1.59-1.11,3.32-1.11,5.2s.37,3.57,1.11,5.18c.74,1.61,1.78,3,3.13,4.18,1.35,1.18,2.95,2.1,4.82,2.77s3.9,1,6.12,1Z"/><path class="cls-2" d="m378.42,81.98v-38.75h7.2v38.75h-7.2Zm5.2-10.07l-.89-7.2,25.9-21.48h9.74l-34.76,28.67Zm25.46,10.07l-16.22-20.37,4.54-5.04,20.76,25.41h-9.08Z"/><path class="cls-2" d="m432.78,81.98v-6.64h9.13v-25.46h-9.13v-6.64h25.52v6.64h-9.19v25.46h9.19v6.64h-25.52Z"/><circle class="cls-1" cx="108" cy="60.57" r="27"/></g></svg>